<svg xmlns="http://www.w3.org/2000/svg" viewBox="0 0 74.07 58.07"><defs><style>.cls-1{fill:#1b76b0;}.cls-2{fill:#1aa5b4;}.cls-3{fill:#fff;}.cls-4{fill:#36474f;}.cls-5{fill:#10676f;}.cls-6{fill:#0b4778;}.cls-7{fill:#1066ab;}.cls-8{fill:#c2c2c2;}.cls-9{fill:#ad620d;}.cls-10{fill:#ef8713;}.cls-11{fill:#cfd8d9;}.cls-12{fill:#f5f5f5;}.cls-13{fill:#116b75;}</style></defs><g id="Calque_2" data-name="Calque 2"><g id="Calque_1-2" data-name="Calque 1"><path class="cls-1" d="M11.19,24.29a10.61,10.61,0,0,1,9.65-2.54l-1.37-1.47L18.25,19l-3.82-4.13-.49-.52a1.52,1.52,0,0,0-2.16-.08L1.11,24.12A1.53,1.53,0,0,0,1,26.28l6.9,7.44A10.57,10.57,0,0,1,11.19,24.29Zm-.7-3.79a1.68,1.68,0,1,1,2.38.09A1.69,1.69,0,0,1,10.49,20.5Z"/><path class="cls-1" d="M32.53,34.37l-2.3-2.48-1.37-1.47A10.59,10.59,0,0,1,16,42.38l3.66,4a1.54,1.54,0,0,0,2.17.09l10.67-9.89A1.53,1.53,0,0,0,32.53,34.37Z"/><path class="cls-2" d="M26.17,24.86a10.59,10.59,0,0,1,2.69,5.56l1.37,1.47,2-2.94a2.17,2.17,0,0,0-.19-2.71l-6.83-7.37a2.17,2.17,0,0,0-2.68-.4l-3.09,1.81,1.37,1.47A10.61,10.61,0,0,1,26.17,24.86Z"/><path class="cls-3" d="M25.6,39.84A10.61,10.61,0,1,0,16,42.38,10.57,10.57,0,0,0,25.6,39.84ZM12.89,37.16a7.5,7.5,0,1,1,10.6.41A7.49,7.49,0,0,1,12.89,37.16Z"/><circle class="cls-4" cx="18.39" cy="32.07" r="7.5"/><path class="cls-2" d="M19.64,17.67a.69.69,0,0,0,0-1L16.8,13.58a.69.69,0,0,0-1,0l-1.39,1.29L18.25,19Z"/><path d="M33,34l-2-2.12,1.75-2.53a2.76,2.76,0,0,0-.25-3.48l-6.83-7.37a2.77,2.77,0,0,0-3.44-.51l-2.66,1.55-.47-.5.94-.87a1.3,1.3,0,0,0,.07-1.85l-2.88-3.11a1.31,1.31,0,0,0-1.85-.07l-.94.87-.06-.07a2.16,2.16,0,0,0-3-.12L.69,23.66a2.16,2.16,0,0,0-.12,3l1.49,1.61L7.34,34a11.21,11.21,0,0,0,8.27,8.92l3.55,3.83a2.16,2.16,0,0,0,3,.12L32.87,37A2.16,2.16,0,0,0,33,34ZM22.87,19a1.54,1.54,0,0,1,1.92.28l6.83,7.37a1.54,1.54,0,0,1,.13,1.93L30.16,30.9l-.72-.78a11.21,11.21,0,0,0-8.27-8.92l-.72-.78Zm-6.63-5a.09.09,0,0,1,.11,0l2.88,3.11a.07.07,0,0,1,0,.1l-.94.87-3-3.22ZM3.39,27.92l4.93-4.56a.62.62,0,0,0-.84-.91L2.55,27,1.48,25.86a.91.91,0,0,1,.05-1.29L12.2,14.68a.91.91,0,0,1,1.29.05l.48.52,3.83,4.13L19,20.7l.17.18A11.21,11.21,0,0,0,7.18,32L3.39,27.92Zm12.87,13.9a10,10,0,0,1-5.19-3,9.93,9.93,0,0,1-2.56-5.41,10,10,0,0,1,12-11.12,10.18,10.18,0,0,1,2.54.92,9.75,9.75,0,0,1,2.65,2,10,10,0,0,1,1.84,2.8,10.46,10.46,0,0,1,.73,2.61,10,10,0,0,1-12,11.13ZM21.36,46a.91.91,0,0,1-1.29,0l-2.48-2.67a11.2,11.2,0,0,0,12-11.13l.16.19,2.31,2.48a.91.91,0,0,1,0,1.29L21.36,46Z"/><path d="M24.34,26.55A8.11,8.11,0,1,0,13.92,38.84a.61.61,0,0,0,.85-.17.62.62,0,0,0-.17-.86,6.74,6.74,0,0,1-1.26-1.07,6.87,6.87,0,1,1,6.1,2.13.62.62,0,1,0,.18,1.22,8.11,8.11,0,0,0,4.72-13.54Z"/><path d="M17.47,39.67a.36.36,0,0,0,0-.11s0-.08,0-.12,0-.08,0-.12l0-.12a.6.6,0,0,0-.06-.11.44.44,0,0,0-.16-.17l-.1-.07-.12,0h-.24a.27.27,0,0,0-.12,0l-.11,0-.09.07-.08.09a.3.3,0,0,0-.06.11.36.36,0,0,0,0,.11.5.5,0,0,0,0,.12.49.49,0,0,0,0,.12.27.27,0,0,0,0,.12.54.54,0,0,0,.05.11l.07.1.1.08.1.06.11,0h.12a.61.61,0,0,0,.45-.16l.08-.09Z"/><g id="Page-1"><g id="_035---Creative-Thinking" data-name="035---Creative-Thinking"><path id="Shape" class="cls-5" d="M70,25.72c-.13.27-.26.56-.38.87l-4.54,11-1.46-2.1L59.86,30l2.65-6.39c.11-.29.23-.57.33-.83L68,24.91Z"/><path id="Shape-2" data-name="Shape" class="cls-2" d="M68,24.91l-.31.71-4.06,9.83L59.86,30l2.65-6.39c.11-.29.23-.57.33-.83Z"/><path id="Shape-3" data-name="Shape" class="cls-6" d="M55.45,22.35c-.1,1.94-.3,3.87-.59,5.81L48.1,29.25c0-.11,0-.2,0-.31A48.43,48.43,0,0,1,48.23,22s0-.08,0-.12h0Z"/><path id="Shape-4" data-name="Shape" class="cls-7" d="M53.52,22.35a57.2,57.2,0,0,1-.6,5.81l-4.83.78A48.43,48.43,0,0,1,48.23,22Z"/><path id="Shape-5" data-name="Shape" class="cls-8" d="M37.09,18.69a1.42,1.42,0,0,1-.58,0c-2.61-.3-5-6.45-5-6.45l.18-4.95c.43.15.65-.7.9-1.57s.46-1.58.89-1.67c.91-.22,2.61,2.69,3.2,2.07l2.37,4.35S39.92,18,37.09,18.69Z"/><path id="Shape-6" data-name="Shape" class="cls-3" d="M36.51,18.72c-2.61-.3-5-6.45-5-6.45l.18-4.95c.43.15.65-.7.9-1.57.84.75,1.79,2,2.2,1.58l2.36,4.35S37.71,16.44,36.51,18.72Z"/><path id="Shape-7" data-name="Shape" class="cls-9" d="M44.16,32.27l-2,6.45-.54-.47-1.75-1.52-3.29-2.85L32,14.31l-.47-2A4.91,4.91,0,0,0,33.62,14a3.75,3.75,0,0,0,2.34.18,4.09,4.09,0,0,0,1-.37,4.6,4.6,0,0,0,2.12-3.34Z"/><path id="Shape-8" data-name="Shape" class="cls-10" d="M41.25,32.27l-1.37,4.46-3.29-2.85L32,14.31a3.71,3.71,0,0,0,1-.1,2.9,2.9,0,0,0,.57-.18,3.75,3.75,0,0,0,2.34.18,4.09,4.09,0,0,0,1-.37Z"/><path id="Shape-9" data-name="Shape" class="cls-11" d="M73.14,50.33a6.78,6.78,0,0,1-6.77,6.78H23.78a6.78,6.78,0,0,1-1.44-13.4h0a2.57,2.57,0,0,1,.47-.08,5.17,5.17,0,0,1,1-.07,6.37,6.37,0,0,1,1.94.28,10.17,10.17,0,0,1,14-9.23A10.3,10.3,0,0,1,42,35.91a12.09,12.09,0,0,1,9.9-7.75,11.28,11.28,0,0,1,1.42-.09A12.11,12.11,0,0,1,64.88,43.7v0h0a7,7,0,0,1,1.45-.15,6.76,6.76,0,0,1,6.77,6.77Z"/><path id="Shape-10" data-name="Shape" class="cls-12" d="M70.24,50.33a6.78,6.78,0,0,1-6.78,6.78H23.78a6.78,6.78,0,0,1-1.44-13.4h0l.46.13c0-.07,0-.14,0-.21a5.17,5.17,0,0,1,1-.07,6.37,6.37,0,0,1,1.94.28A10.17,10.17,0,0,1,34.42,34c1.73.25,3.31-.18,4.65.82.16-.45.36.23.6-.19A10.3,10.3,0,0,1,42,35.91a12.09,12.09,0,0,1,9.9-7.75,12.12,12.12,0,0,1,10.62,12A11.89,11.89,0,0,1,62,43.72a7,7,0,0,1,1.5-.16,6.17,6.17,0,0,1,1.42.14h0A6.77,6.77,0,0,1,70.24,50.33Z"/><path id="Shape-11" data-name="Shape" class="cls-4" d="M36.7,6.15a4.83,4.83,0,0,1-2.29,1.47,4.89,4.89,0,0,1-2.7-.3l.18-5.11a1.27,1.27,0,0,1,1-1.19,1.33,1.33,0,0,1,.28,0,1.25,1.25,0,0,1,1.12.67Z"/><path id="Shape-12" data-name="Shape" class="cls-6" d="M55.45,22.35a18.31,18.31,0,0,1-2.67,0c-1.63-.07-3.12-.31-4.54-.49.15-1.54.35-3.06.59-4.58,0,0,0-.08,0-.12l6.61.41A44.09,44.09,0,0,1,55.45,22.35Z"/><path id="Shape-13" data-name="Shape" class="cls-7" d="M53.52,22.35c-.26,0-.5,0-.74,0-1.63-.07-3.12-.31-4.54-.49.15-1.54.35-3.06.59-4.58l4.69.29A41.64,41.64,0,0,1,53.52,22.35Z"/><path id="Shape-14" data-name="Shape" class="cls-13" d="M55.41,17.61l-2.77-.18-3.79-.23S45,13.67,48.49,9.78c2.14-2.35,3.34-4.17,3.8-5.79a5.47,5.47,0,0,0,.23-1.75.47.47,0,0,1,.81-.36C55.71,4.21,61.09,10.73,55.41,17.61Z"/><path id="Shape-15" data-name="Shape" class="cls-2" d="M52.64,17.43l-3.79-.23S45,13.67,48.49,9.78c2.14-2.35,3.34-4.17,3.8-5.79C54.62,7.07,56.89,12.13,52.64,17.43Z"/><path id="Shape-16" data-name="Shape" class="cls-11" d="M73.09,20.43a.54.54,0,0,1-.12.44A17,17,0,0,0,70,25.72a3.49,3.49,0,0,1-1.15.55,4.47,4.47,0,0,1-2.46,0,5.88,5.88,0,0,1-.71-.23h0a4.79,4.79,0,0,1-2.45-2.07,3.63,3.63,0,0,1-.41-1.14,17.78,17.78,0,0,0,1.36-5.55.5.5,0,0,1,.23-.39L69.05,14l.81-.5,1.41-.89.37,1.62Z"/><path id="Shape-17" data-name="Shape" class="cls-12" d="M70.55,20.43a.57.57,0,0,1-.12.44,17.06,17.06,0,0,0-2.94,4.85,3.27,3.27,0,0,1-1.06.52,5.88,5.88,0,0,1-.71-.23h0a4.79,4.79,0,0,1-2.45-2.07,3.63,3.63,0,0,1-.41-1.14,17.78,17.78,0,0,0,1.36-5.55.5.5,0,0,1,.23-.39L69.05,14l.06.23Z"/><path id="Shape-18" data-name="Shape" d="M66.37,58.07H23.78a7.74,7.74,0,1,1,1-15.41,11.21,11.21,0,0,1,11.05-9.75,11.09,11.09,0,0,1,5.67,1.55,13.06,13.06,0,0,1,24.59,8.13,7.74,7.74,0,1,1,.23,15.48ZM23.78,44.52a5.81,5.81,0,0,0,0,11.62H66.37a5.81,5.81,0,1,0,0-11.62,5.55,5.55,0,0,0-1.29.15,1,1,0,0,1-1.14-1.24,10.87,10.87,0,0,0,.49-3.26,11.13,11.13,0,0,0-21.55-3.92,1,1,0,0,1-.63.59,1,1,0,0,1-.85-.15,9.19,9.19,0,0,0-14.71,7.16,1,1,0,0,1-.4.77,1,1,0,0,1-.85.14A5.85,5.85,0,0,0,23.78,44.52Z"/><path id="Shape-19" data-name="Shape" d="M36.59,34.85a1,1,0,0,1-.94-.75L30.58,12.5a1,1,0,0,1,1.89-.45l5.06,21.61a1,1,0,0,1-.18.82A1,1,0,0,1,36.59,34.85Z"/><path id="Shape-20" data-name="Shape" d="M44.15,33.24a1,1,0,0,1-.94-.75L38.12,10.72a1,1,0,0,1,.28-.92,1,1,0,0,1,1.61.48L45.1,32.05a1,1,0,0,1-.72,1.16A.91.91,0,0,1,44.15,33.24Z"/><path id="Shape-21" data-name="Shape" d="M35,15.29a5.45,5.45,0,0,1-4.33-2.51.93.93,0,0,1-.14-.54l.36-10.06a2.24,2.24,0,0,1,4.2-1L39.91,10a.89.89,0,0,1,.12.55c0,.16-.39,3.75-3.85,4.57A5,5,0,0,1,35,15.29ZM32.5,12a3,3,0,0,0,5.56-1.3L33.42,2.11A.3.3,0,0,0,33.09,2a.3.3,0,0,0-.23.28Z"/><path id="Shape-22" data-name="Shape" d="M67.71,27.39a6,6,0,0,1-2.37-.5,5.12,5.12,0,0,1-3.43-4.09,1,1,0,0,1,.41-.9,1,1,0,0,1,1.52.76,3.28,3.28,0,0,0,2.24,2.44A3.27,3.27,0,0,0,69.4,25a1,1,0,0,1,1.36.12,1,1,0,0,1-.1,1.35A4.71,4.71,0,0,1,67.71,27.39Z"/><path id="Shape-23" data-name="Shape" d="M33.65,8.67a6.73,6.73,0,0,1-2.27-.44A1,1,0,0,1,30.8,7,1,1,0,0,1,32,6.41a4,4,0,0,0,2.16.27A4,4,0,0,0,36,5.48a1,1,0,0,1,1.4,1.34,5.83,5.83,0,0,1-2.77,1.74A4.6,4.6,0,0,1,33.65,8.67Z"/><path id="Shape-24" data-name="Shape" d="M40.78,35.76a1,1,0,0,1-.94-.74L37,22.92a1,1,0,0,1,1.88-.44l2.84,12.1a1,1,0,0,1-.18.82A1,1,0,0,1,40.78,35.76Z"/><path id="Shape-25" data-name="Shape" d="M36.84,19a1,1,0,0,1-.94-.75L35,14.44a1,1,0,0,1,.73-1.17A1,1,0,0,1,36.9,14l.88,3.77a1,1,0,0,1-.18.83A1,1,0,0,1,36.84,19Z"/><path id="Shape-26" data-name="Shape" d="M59.86,31A1,1,0,0,1,59,29.64l2.64-6.39A1,1,0,0,1,63.28,23a1,1,0,0,1,.12,1l-2.64,6.39A1,1,0,0,1,59.86,31Z"/><path id="Shape-27" data-name="Shape" d="M65.12,38.51a1,1,0,0,1-.81-.43,1,1,0,0,1-.08-.91l4.54-11a1,1,0,0,1,.76-.61,1,1,0,0,1,1,1.35L66,37.92A1,1,0,0,1,65.12,38.51Z"/><path id="Shape-28" data-name="Shape" d="M69.66,27.55a.94.94,0,0,1-.89-.6,1,1,0,0,1,0-.74,20.9,20.9,0,0,1,3.32-5.8L71,15.75l-1.44,3.46a1,1,0,1,1-1.79-.74l2.59-6.26a1,1,0,0,1,1-.59,1,1,0,0,1,.86.75L74,20.21a1.47,1.47,0,0,1-.36,1.33A18.19,18.19,0,0,0,70.55,27,1,1,0,0,1,69.66,27.55Z"/><path id="Shape-29" data-name="Shape" d="M62.5,24.59a1,1,0,0,1-.37-.08,1,1,0,0,1-.52-1.26,18.12,18.12,0,0,0,1.63-6A1.43,1.43,0,0,1,63.92,16l6.83-4.26A1,1,0,0,1,72.16,13l-2.59,6.26a1,1,0,1,1-1.79-.74L69.21,15l-4,2.54A21.24,21.24,0,0,1,63.4,24,1,1,0,0,1,62.5,24.59Z"/><path id="Shape-30" data-name="Shape" d="M48.1,30.22a1,1,0,0,1-1-.91,47,47,0,0,1,.14-7.5c.14-1.52.34-3.08.61-4.76a1,1,0,0,1,1-.81l6.61.4a1,1,0,0,1,.9.91,52.24,52.24,0,0,1-.6,10.75,1,1,0,0,1-.6.77A1,1,0,0,1,53.9,28a53,53,0,0,0,.64-9.5l-4.87-.3c-.19,1.31-.35,2.55-.46,3.77a45.55,45.55,0,0,0-.13,7.2,1,1,0,0,1-.24.7,1,1,0,0,1-.67.33Z"/><path id="Shape-31" data-name="Shape" d="M55.41,18.57A1,1,0,0,1,54.66,17a8.82,8.82,0,0,0,2.25-6.69,12.87,12.87,0,0,0-3.49-6.93c-.31,2-1.65,4.22-4.21,7.06a4.12,4.12,0,0,0,.3,6.06,1,1,0,1,1-1.31,1.43,7.55,7.55,0,0,1-1.75-2.61,5.68,5.68,0,0,1,1.32-6.18c3.68-4.06,4.12-6,3.62-7.9a1,1,0,0,1,.4-1.07,1,1,0,0,1,1.13,0c.22.17,5.32,4.24,5.92,9.89a10.73,10.73,0,0,1-2.69,8.13A.93.93,0,0,1,55.41,18.57Z"/><path id="Shape-32" data-name="Shape" d="M53.48,15.2a1,1,0,0,1-.77-1.55,5.38,5.38,0,0,0,1-4,1,1,0,0,1,.24-.95,1,1,0,0,1,1-.25,1,1,0,0,1,.68.7,7.24,7.24,0,0,1-1.29,5.7A1,1,0,0,1,53.48,15.2Z"/><path id="Shape-33" data-name="Shape" d="M53.18,23.31A27.78,27.78,0,0,1,49.42,23l-1-.12a1,1,0,1,1,.23-1.93l1,.13a19.76,19.76,0,0,0,5,.23,1,1,0,0,1,1,.86,1,1,0,0,1-.83,1.07C54.3,23.28,53.74,23.31,53.18,23.31Z"/><path id="Shape-34" data-name="Shape" d="M41,51.3a1,1,0,0,1-.89-.59,5.93,5.93,0,0,1-.47-2.31,5.8,5.8,0,0,1,11.06-2.48,1,1,0,1,1-1.75.83,3.83,3.83,0,0,0-3.51-2.23,3.88,3.88,0,0,0-3.87,3.88A4,4,0,0,0,41.88,50a1,1,0,0,1,0,.74,1,1,0,0,1-.52.53A1,1,0,0,1,41,51.3Z"/><path id="Shape-35" data-name="Shape" d="M55.72,48.71a1,1,0,0,1-.88-.56,2.89,2.89,0,0,0-4.43-1.06,1,1,0,1,1-1.2-1.51,4.76,4.76,0,0,1,3-1.06,4.85,4.85,0,0,1,4.39,2.83,1,1,0,0,1-.88,1.36Z"/><path id="Shape-36" data-name="Shape" d="M30.56,43.56a1,1,0,0,1-1-1c0-3.56,3.42-4.74,3.57-4.79a1,1,0,0,1,.61,1.84,3.31,3.31,0,0,0-2.24,3A1,1,0,0,1,30.56,43.56Z"/><path id="Shape-37" data-name="Shape" d="M47,36.78a1,1,0,0,1-.24,0,1,1,0,0,1-.7-1.17A6,6,0,0,1,51.85,31a1,1,0,0,1,0,1.94A4.13,4.13,0,0,0,48,36.05,1,1,0,0,1,47,36.78Z"/></g></g><circle class="cls-10" cx="65.15" cy="49.87" r="1.33"/><path d="M66.84,49.18a1.83,1.83,0,1,0-1,2.38A1.83,1.83,0,0,0,66.84,49.18Zm-2.47,1a.84.84,0,1,1,1.1.46A.84.84,0,0,1,64.37,50.19Z"/></g></g></svg>