<?xml version="1.0" encoding="utf-8"?>
<!-- Generator: Adobe Illustrator 24.1.0, SVG Export Plug-In . SVG Version: 6.00 Build 0)  -->
<svg version="1.1" id="Capa_1" xmlns="http://www.w3.org/2000/svg" xmlns:xlink="http://www.w3.org/1999/xlink" x="0px" y="0px"
	 viewBox="0 0 512 512" style="enable-background:new 0 0 512 512;" xml:space="preserve">
<style type="text/css">
	.st0{fill:#398B8E;}
	.st1{fill:#6EBEB9;}
	.st2{fill:#4AB1B4;}
</style>
<path class="st0" d="M197.8,76.4l-63.6-63.6c-16.8-17.1-46.8-17.1-63.9,0L60.1,23.3C59.7,23.7,49,34.3,49,34.7
	c-5.4,5.7-5.1,15,0.6,20.4L155.5,161c5.4,6,15.6,6,21,0l21.3-21.3C214.9,123.2,215.9,94,197.8,76.4z"/>
<path class="st0" d="M498.7,378l-63.6-63.6c-16.8-17.1-46.5-17.1-63.3,0l-10.5,10.8l-10.8,10.5c-6,5.7-6,15.3,0,21l106.2,106.2
	c5.2,5.8,15.1,6.2,21.3,0l10.2-10.5l10.5-10.8C516.4,424.2,516.4,395.4,498.7,378z"/>
<path class="st1" d="M488.2,452.4L478,462.9c-81.9,73.8-177.6,56.1-231.6,1.8L47.5,265.1c-63.3-63-63.3-165.9,0-229.2
	c0.3,0,2.7-2.4,2.7-2.7l9.9-9.9L187,150.2l-6,6.3l-4.5,4.5c-9.6,10.5-17.4,17.1-17.4,31.8c0,9.3,3.6,17.7,9.9,24.3l50.1,50.1
	l75.3,76c12.9,12.9,35.4,12.9,48.3,0l7.8-7.5l10.8-10.5L488.2,452.4z"/>
<path class="st2" d="M361.3,325.2l126.9,127.2L478,462.9c-81.9,73.8-177.6,56.1-231.6,1.8l-112-112.6c0-0.3,0-0.3,0-0.3l84.6-84.6
	l75.3,76c12.9,12.9,35.4,12.9,48.3,0l7.8-7.5L361.3,325.2z"/>
</svg>
