<?xml version="1.0" encoding="utf-8"?>
<!-- Generator: Adobe Illustrator 24.1.0, SVG Export Plug-In . SVG Version: 6.00 Build 0)  -->
<svg version="1.1" id="Capa_1" xmlns="http://www.w3.org/2000/svg" xmlns:xlink="http://www.w3.org/1999/xlink" x="0px" y="0px"
	 viewBox="0 0 512 512" style="enable-background:new 0 0 512 512;" xml:space="preserve">
<style type="text/css">
	.st0{fill:#398B8E;}
	.st1{fill:#4AB1B4;}
	.st2{fill:#6EBEB9;}
</style>
<path class="st0" d="M480,432H32c-17.7,0-32-14.3-32-32V112c0-17.7,14.3-32,32-32h448c17.7,0,32,14.3,32,32v288
	C512,417.7,497.7,432,480,432z"/>
<path class="st1" d="M480,432H32c-18,0-32-14-32-32c0-5.1,2.4-9.9,6.5-12.9l240-160c2.8-2.1,6.1-3.1,9.5-3.1s6.7,1,9.5,3.1l240,160
	c4.1,3,6.5,7.8,6.5,12.9C512,418,498,432,480,432z"/>
<path class="st2" d="M480,80H32C14,80,0,94,0,112c0,5.1,2.4,9.9,6.5,12.9l240.1,172.4c5.6,4,13.1,4,18.7,0l240.1-172.4
	c4.1-3,6.6-7.8,6.6-12.9C512,94,498,80,480,80z"/>
</svg>
